<mxfile host="app.diagrams.net" agent="Mozilla/5.0 (Windows NT 10.0; Win64; x64) AppleWebKit/537.36 (KHTML, like Gecko) Chrome/134.0.0.0 Safari/537.36" version="26.2.4">
  <diagram id="R2lEEEUBdFMjLlhIrx00" name="Page-1">
    <mxGraphModel dx="2040" dy="2259" grid="1" gridSize="10" guides="1" tooltips="1" connect="1" arrows="1" fold="1" page="1" pageScale="1" pageWidth="850" pageHeight="1100" math="0" shadow="0" extFonts="Permanent Marker^https://fonts.googleapis.com/css?family=Permanent+Marker">
      <root>
        <mxCell id="0" />
        <mxCell id="1" parent="0" />
        <mxCell id="GMpPNXfCE2aBIk65RLhV-52" value="Описание" style="ellipse;whiteSpace=wrap;html=1;" parent="1" vertex="1">
          <mxGeometry x="1126.43" y="20" width="137.14" height="80" as="geometry" />
        </mxCell>
        <mxCell id="uvGimCY9zHbltvtBSdN4-2" style="edgeStyle=orthogonalEdgeStyle;rounded=0;orthogonalLoop=1;jettySize=auto;html=1;entryX=0.25;entryY=0;entryDx=0;entryDy=0;startArrow=classic;startFill=1;endArrow=doubleBlock;endFill=1;" parent="1" source="GMpPNXfCE2aBIk65RLhV-1" target="GMpPNXfCE2aBIk65RLhV-26" edge="1">
          <mxGeometry relative="1" as="geometry">
            <Array as="points">
              <mxPoint x="395.72" y="260" />
              <mxPoint x="845.72" y="260" />
            </Array>
          </mxGeometry>
        </mxCell>
        <mxCell id="GMpPNXfCE2aBIk65RLhV-1" value="Клиент" style="rounded=0;whiteSpace=wrap;html=1;" parent="1" vertex="1">
          <mxGeometry x="335.72" y="100" width="120" height="60" as="geometry" />
        </mxCell>
        <mxCell id="GMpPNXfCE2aBIk65RLhV-6" style="edgeStyle=orthogonalEdgeStyle;rounded=0;orthogonalLoop=1;jettySize=auto;html=1;exitX=1;exitY=1;exitDx=0;exitDy=0;endArrow=none;endFill=0;" parent="1" source="GMpPNXfCE2aBIk65RLhV-2" target="GMpPNXfCE2aBIk65RLhV-1" edge="1">
          <mxGeometry relative="1" as="geometry" />
        </mxCell>
        <mxCell id="GMpPNXfCE2aBIk65RLhV-2" value="Логин" style="ellipse;whiteSpace=wrap;html=1;" parent="1" vertex="1">
          <mxGeometry x="205.72" y="-50" width="120" height="70" as="geometry" />
        </mxCell>
        <mxCell id="GMpPNXfCE2aBIk65RLhV-5" style="edgeStyle=orthogonalEdgeStyle;rounded=0;orthogonalLoop=1;jettySize=auto;html=1;entryX=0;entryY=0.5;entryDx=0;entryDy=0;endArrow=none;endFill=0;" parent="1" source="GMpPNXfCE2aBIk65RLhV-3" target="GMpPNXfCE2aBIk65RLhV-1" edge="1">
          <mxGeometry relative="1" as="geometry" />
        </mxCell>
        <mxCell id="GMpPNXfCE2aBIk65RLhV-3" value="Пароль" style="ellipse;whiteSpace=wrap;html=1;" parent="1" vertex="1">
          <mxGeometry x="75.72" y="70" width="120" height="70" as="geometry" />
        </mxCell>
        <mxCell id="GMpPNXfCE2aBIk65RLhV-7" style="edgeStyle=orthogonalEdgeStyle;rounded=0;orthogonalLoop=1;jettySize=auto;html=1;entryX=0.75;entryY=0;entryDx=0;entryDy=0;endArrow=none;endFill=0;" parent="1" source="GMpPNXfCE2aBIk65RLhV-4" target="GMpPNXfCE2aBIk65RLhV-1" edge="1">
          <mxGeometry relative="1" as="geometry" />
        </mxCell>
        <mxCell id="GMpPNXfCE2aBIk65RLhV-4" value="E-mail" style="ellipse;whiteSpace=wrap;html=1;" parent="1" vertex="1">
          <mxGeometry x="435.72" y="-70" width="120" height="70" as="geometry" />
        </mxCell>
        <mxCell id="GMpPNXfCE2aBIk65RLhV-9" style="edgeStyle=orthogonalEdgeStyle;rounded=0;orthogonalLoop=1;jettySize=auto;html=1;entryX=1;entryY=0.5;entryDx=0;entryDy=0;exitX=0;exitY=1;exitDx=0;exitDy=0;endArrow=none;endFill=0;" parent="1" source="GMpPNXfCE2aBIk65RLhV-8" target="GMpPNXfCE2aBIk65RLhV-1" edge="1">
          <mxGeometry relative="1" as="geometry">
            <Array as="points">
              <mxPoint x="613.72" y="100" />
              <mxPoint x="525.72" y="100" />
              <mxPoint x="525.72" y="110" />
              <mxPoint x="485.72" y="110" />
              <mxPoint x="485.72" y="130" />
            </Array>
          </mxGeometry>
        </mxCell>
        <mxCell id="GMpPNXfCE2aBIk65RLhV-8" value="ФИО" style="ellipse;whiteSpace=wrap;html=1;" parent="1" vertex="1">
          <mxGeometry x="595.72" y="10" width="120" height="70" as="geometry" />
        </mxCell>
        <mxCell id="GMpPNXfCE2aBIk65RLhV-21" style="edgeStyle=orthogonalEdgeStyle;rounded=0;orthogonalLoop=1;jettySize=auto;html=1;exitX=1;exitY=0.5;exitDx=0;exitDy=0;entryX=0;entryY=0.5;entryDx=0;entryDy=0;endArrow=none;endFill=0;" parent="1" source="GMpPNXfCE2aBIk65RLhV-10" target="GMpPNXfCE2aBIk65RLhV-52" edge="1">
          <mxGeometry relative="1" as="geometry">
            <mxPoint x="1105.7200000000003" y="65" as="targetPoint" />
          </mxGeometry>
        </mxCell>
        <mxCell id="GMpPNXfCE2aBIk65RLhV-22" style="edgeStyle=orthogonalEdgeStyle;rounded=0;orthogonalLoop=1;jettySize=auto;html=1;exitX=1;exitY=0.75;exitDx=0;exitDy=0;endArrow=none;endFill=0;" parent="1" source="GMpPNXfCE2aBIk65RLhV-10" target="GMpPNXfCE2aBIk65RLhV-17" edge="1">
          <mxGeometry relative="1" as="geometry" />
        </mxCell>
        <mxCell id="GMpPNXfCE2aBIk65RLhV-10" value="Товар" style="rounded=0;whiteSpace=wrap;html=1;" parent="1" vertex="1">
          <mxGeometry x="895.72" y="50" width="120" height="60" as="geometry" />
        </mxCell>
        <mxCell id="GMpPNXfCE2aBIk65RLhV-11" value="Название" style="ellipse;whiteSpace=wrap;html=1;" parent="1" vertex="1">
          <mxGeometry x="885.72" y="-70" width="120" height="70" as="geometry" />
        </mxCell>
        <mxCell id="GMpPNXfCE2aBIk65RLhV-17" value="Цена" style="ellipse;whiteSpace=wrap;html=1;" parent="1" vertex="1">
          <mxGeometry x="1045.72" y="140" width="120" height="70" as="geometry" />
        </mxCell>
        <mxCell id="GMpPNXfCE2aBIk65RLhV-19" style="edgeStyle=orthogonalEdgeStyle;rounded=0;orthogonalLoop=1;jettySize=auto;html=1;exitX=0.25;exitY=0;exitDx=0;exitDy=0;entryX=0.409;entryY=1.022;entryDx=0;entryDy=0;entryPerimeter=0;endArrow=none;endFill=0;" parent="1" source="GMpPNXfCE2aBIk65RLhV-10" target="GMpPNXfCE2aBIk65RLhV-11" edge="1">
          <mxGeometry relative="1" as="geometry" />
        </mxCell>
        <mxCell id="GMpPNXfCE2aBIk65RLhV-26" value="Заказ" style="rounded=0;whiteSpace=wrap;html=1;" parent="1" vertex="1">
          <mxGeometry x="815.72" y="330" width="120" height="60" as="geometry" />
        </mxCell>
        <mxCell id="GMpPNXfCE2aBIk65RLhV-30" style="edgeStyle=orthogonalEdgeStyle;rounded=0;orthogonalLoop=1;jettySize=auto;html=1;exitX=0.5;exitY=0;exitDx=0;exitDy=0;endArrow=none;endFill=0;" parent="1" source="GMpPNXfCE2aBIk65RLhV-27" target="GMpPNXfCE2aBIk65RLhV-26" edge="1">
          <mxGeometry relative="1" as="geometry" />
        </mxCell>
        <mxCell id="GMpPNXfCE2aBIk65RLhV-27" value="Статус заказа" style="ellipse;whiteSpace=wrap;html=1;" parent="1" vertex="1">
          <mxGeometry x="875.72" y="445" width="120" height="70" as="geometry" />
        </mxCell>
        <mxCell id="GMpPNXfCE2aBIk65RLhV-28" value="Дата заказа" style="ellipse;whiteSpace=wrap;html=1;" parent="1" vertex="1">
          <mxGeometry x="745.72" y="445" width="120" height="70" as="geometry" />
        </mxCell>
        <mxCell id="GMpPNXfCE2aBIk65RLhV-32" style="edgeStyle=orthogonalEdgeStyle;rounded=0;orthogonalLoop=1;jettySize=auto;html=1;exitX=1;exitY=0.5;exitDx=0;exitDy=0;entryX=0;entryY=0.5;entryDx=0;entryDy=0;endArrow=none;endFill=0;" parent="1" source="GMpPNXfCE2aBIk65RLhV-29" target="GMpPNXfCE2aBIk65RLhV-26" edge="1">
          <mxGeometry relative="1" as="geometry" />
        </mxCell>
        <mxCell id="GMpPNXfCE2aBIk65RLhV-29" value="Номер Заказа" style="ellipse;whiteSpace=wrap;html=1;" parent="1" vertex="1">
          <mxGeometry x="560.72" y="420" width="120" height="70" as="geometry" />
        </mxCell>
        <mxCell id="GMpPNXfCE2aBIk65RLhV-31" style="edgeStyle=orthogonalEdgeStyle;rounded=0;orthogonalLoop=1;jettySize=auto;html=1;exitX=0.5;exitY=0;exitDx=0;exitDy=0;entryX=0.185;entryY=0.971;entryDx=0;entryDy=0;entryPerimeter=0;endArrow=none;endFill=0;" parent="1" source="GMpPNXfCE2aBIk65RLhV-28" target="GMpPNXfCE2aBIk65RLhV-26" edge="1">
          <mxGeometry relative="1" as="geometry" />
        </mxCell>
        <mxCell id="GMpPNXfCE2aBIk65RLhV-34" value="S" style="text;html=1;align=center;verticalAlign=middle;whiteSpace=wrap;rounded=0;" parent="1" vertex="1">
          <mxGeometry x="505.72" y="-100" width="30" height="30" as="geometry" />
        </mxCell>
        <mxCell id="GMpPNXfCE2aBIk65RLhV-36" value="S" style="text;html=1;align=center;verticalAlign=middle;whiteSpace=wrap;rounded=0;" parent="1" vertex="1">
          <mxGeometry x="640.72" y="-30" width="30" height="30" as="geometry" />
        </mxCell>
        <mxCell id="GMpPNXfCE2aBIk65RLhV-38" value="S" style="text;html=1;align=center;verticalAlign=middle;whiteSpace=wrap;rounded=0;" parent="1" vertex="1">
          <mxGeometry x="250.72" y="-90" width="30" height="30" as="geometry" />
        </mxCell>
        <mxCell id="GMpPNXfCE2aBIk65RLhV-39" value="D" style="text;html=1;align=center;verticalAlign=middle;whiteSpace=wrap;rounded=0;" parent="1" vertex="1">
          <mxGeometry x="75.72" y="40" width="30" height="30" as="geometry" />
        </mxCell>
        <mxCell id="GMpPNXfCE2aBIk65RLhV-41" value="S" style="text;html=1;align=center;verticalAlign=middle;whiteSpace=wrap;rounded=0;" parent="1" vertex="1">
          <mxGeometry x="758.22" y="515" width="30" height="30" as="geometry" />
        </mxCell>
        <mxCell id="GMpPNXfCE2aBIk65RLhV-42" value="D" style="text;html=1;align=center;verticalAlign=middle;whiteSpace=wrap;rounded=0;" parent="1" vertex="1">
          <mxGeometry x="943.22" y="515" width="30" height="30" as="geometry" />
        </mxCell>
        <mxCell id="GMpPNXfCE2aBIk65RLhV-43" value="S" style="text;html=1;align=center;verticalAlign=middle;whiteSpace=wrap;rounded=0;" parent="1" vertex="1">
          <mxGeometry x="605.72" y="390" width="30" height="30" as="geometry" />
        </mxCell>
        <mxCell id="GMpPNXfCE2aBIk65RLhV-45" value="S" style="text;html=1;align=center;verticalAlign=middle;whiteSpace=wrap;rounded=0;" parent="1" vertex="1">
          <mxGeometry x="930.72" y="-100" width="30" height="30" as="geometry" />
        </mxCell>
        <mxCell id="GMpPNXfCE2aBIk65RLhV-49" value="S" style="text;html=1;align=center;verticalAlign=middle;whiteSpace=wrap;rounded=0;" parent="1" vertex="1">
          <mxGeometry x="1145.72" y="210" width="30" height="30" as="geometry" />
        </mxCell>
        <mxCell id="GMpPNXfCE2aBIk65RLhV-50" value="S" style="text;html=1;align=center;verticalAlign=middle;whiteSpace=wrap;rounded=0;" parent="1" vertex="1">
          <mxGeometry x="1225" y="100" width="30" height="30" as="geometry" />
        </mxCell>
        <mxCell id="GMpPNXfCE2aBIk65RLhV-55" style="edgeStyle=orthogonalEdgeStyle;rounded=0;orthogonalLoop=1;jettySize=auto;html=1;startArrow=doubleBlock;startFill=1;endArrow=classic;endFill=1;exitX=0.75;exitY=1;exitDx=0;exitDy=0;" parent="1" source="GMpPNXfCE2aBIk65RLhV-10" target="GMpPNXfCE2aBIk65RLhV-26" edge="1">
          <mxGeometry relative="1" as="geometry">
            <Array as="points">
              <mxPoint x="985.72" y="190" />
              <mxPoint x="865.72" y="190" />
              <mxPoint x="865.72" y="250" />
              <mxPoint x="895.72" y="250" />
            </Array>
          </mxGeometry>
        </mxCell>
        <mxCell id="GMpPNXfCE2aBIk65RLhV-60" style="edgeStyle=orthogonalEdgeStyle;rounded=0;orthogonalLoop=1;jettySize=auto;html=1;entryX=0;entryY=0.5;entryDx=0;entryDy=0;endArrow=doubleBlock;endFill=1;startArrow=doubleBlock;startFill=1;" parent="1" source="GMpPNXfCE2aBIk65RLhV-1" target="GMpPNXfCE2aBIk65RLhV-10" edge="1">
          <mxGeometry relative="1" as="geometry">
            <Array as="points">
              <mxPoint x="835.72" y="140" />
              <mxPoint x="835.72" y="80" />
            </Array>
          </mxGeometry>
        </mxCell>
        <mxCell id="GMpPNXfCE2aBIk65RLhV-63" value="" style="rhombus;whiteSpace=wrap;html=1;" parent="1" vertex="1">
          <mxGeometry x="664" y="120" width="40" height="40" as="geometry" />
        </mxCell>
        <mxCell id="GMpPNXfCE2aBIk65RLhV-64" value="" style="rhombus;whiteSpace=wrap;html=1;" parent="1" vertex="1">
          <mxGeometry x="845.72" y="190" width="40" height="40" as="geometry" />
        </mxCell>
        <mxCell id="uvGimCY9zHbltvtBSdN4-3" value="" style="rhombus;whiteSpace=wrap;html=1;" parent="1" vertex="1">
          <mxGeometry x="595.72" y="235" width="50" height="50" as="geometry" />
        </mxCell>
        <mxCell id="uvGimCY9zHbltvtBSdN4-81" value="Товар" style="swimlane;fontStyle=0;childLayout=stackLayout;horizontal=1;startSize=30;horizontalStack=0;resizeParent=1;resizeParentMax=0;resizeLast=0;collapsible=1;marginBottom=0;whiteSpace=wrap;html=1;" parent="1" vertex="1">
          <mxGeometry x="660" y="1520" width="140" height="180" as="geometry" />
        </mxCell>
        <mxCell id="uvGimCY9zHbltvtBSdN4-82" value="ProductID&amp;nbsp;(PK) " style="text;strokeColor=none;fillColor=none;align=left;verticalAlign=middle;spacingLeft=4;spacingRight=4;overflow=hidden;points=[[0,0.5],[1,0.5]];portConstraint=eastwest;rotatable=0;whiteSpace=wrap;html=1;" parent="uvGimCY9zHbltvtBSdN4-81" vertex="1">
          <mxGeometry y="30" width="140" height="30" as="geometry" />
        </mxCell>
        <mxCell id="uvGimCY9zHbltvtBSdN4-83" value="Название" style="text;strokeColor=none;fillColor=none;align=left;verticalAlign=middle;spacingLeft=4;spacingRight=4;overflow=hidden;points=[[0,0.5],[1,0.5]];portConstraint=eastwest;rotatable=0;whiteSpace=wrap;html=1;" parent="uvGimCY9zHbltvtBSdN4-81" vertex="1">
          <mxGeometry y="60" width="140" height="30" as="geometry" />
        </mxCell>
        <mxCell id="uvGimCY9zHbltvtBSdN4-112" value="Описание" style="text;strokeColor=none;fillColor=none;align=left;verticalAlign=middle;spacingLeft=4;spacingRight=4;overflow=hidden;points=[[0,0.5],[1,0.5]];portConstraint=eastwest;rotatable=0;whiteSpace=wrap;html=1;" parent="uvGimCY9zHbltvtBSdN4-81" vertex="1">
          <mxGeometry y="90" width="140" height="30" as="geometry" />
        </mxCell>
        <mxCell id="pVDXWpWLJMNRWE-AtLAr-93" value="Цена" style="text;strokeColor=none;fillColor=none;align=left;verticalAlign=middle;spacingLeft=4;spacingRight=4;overflow=hidden;points=[[0,0.5],[1,0.5]];portConstraint=eastwest;rotatable=0;whiteSpace=wrap;html=1;" vertex="1" parent="uvGimCY9zHbltvtBSdN4-81">
          <mxGeometry y="120" width="140" height="30" as="geometry" />
        </mxCell>
        <mxCell id="pVDXWpWLJMNRWE-AtLAr-94" value="&lt;code data-end=&quot;460&quot; data-start=&quot;448&quot;&gt;CategoryID&lt;/code&gt; (FK)" style="text;strokeColor=none;fillColor=none;align=left;verticalAlign=middle;spacingLeft=4;spacingRight=4;overflow=hidden;points=[[0,0.5],[1,0.5]];portConstraint=eastwest;rotatable=0;whiteSpace=wrap;html=1;" vertex="1" parent="uvGimCY9zHbltvtBSdN4-81">
          <mxGeometry y="150" width="140" height="30" as="geometry" />
        </mxCell>
        <mxCell id="uvGimCY9zHbltvtBSdN4-85" value="Заказ" style="swimlane;fontStyle=0;childLayout=stackLayout;horizontal=1;startSize=30;horizontalStack=0;resizeParent=1;resizeParentMax=0;resizeLast=0;collapsible=1;marginBottom=0;whiteSpace=wrap;html=1;" parent="1" vertex="1">
          <mxGeometry x="865" y="1520" width="140" height="180" as="geometry" />
        </mxCell>
        <mxCell id="uvGimCY9zHbltvtBSdN4-86" value="&lt;code data-end=&quot;643&quot; data-start=&quot;634&quot;&gt;OrderID&lt;/code&gt; (PK)" style="text;strokeColor=none;fillColor=none;align=left;verticalAlign=middle;spacingLeft=4;spacingRight=4;overflow=hidden;points=[[0,0.5],[1,0.5]];portConstraint=eastwest;rotatable=0;whiteSpace=wrap;html=1;" parent="uvGimCY9zHbltvtBSdN4-85" vertex="1">
          <mxGeometry y="30" width="140" height="30" as="geometry" />
        </mxCell>
        <mxCell id="uvGimCY9zHbltvtBSdN4-87" value="&lt;span style=&quot;text-align: center;&quot;&gt;Номер Заказа&lt;/span&gt;" style="text;strokeColor=none;fillColor=none;align=left;verticalAlign=middle;spacingLeft=4;spacingRight=4;overflow=hidden;points=[[0,0.5],[1,0.5]];portConstraint=eastwest;rotatable=0;whiteSpace=wrap;html=1;" parent="uvGimCY9zHbltvtBSdN4-85" vertex="1">
          <mxGeometry y="60" width="140" height="30" as="geometry" />
        </mxCell>
        <mxCell id="uvGimCY9zHbltvtBSdN4-88" value="&lt;span style=&quot;text-align: center;&quot;&gt;Дата заказа&lt;/span&gt;" style="text;strokeColor=none;fillColor=none;align=left;verticalAlign=middle;spacingLeft=4;spacingRight=4;overflow=hidden;points=[[0,0.5],[1,0.5]];portConstraint=eastwest;rotatable=0;whiteSpace=wrap;html=1;" parent="uvGimCY9zHbltvtBSdN4-85" vertex="1">
          <mxGeometry y="90" width="140" height="30" as="geometry" />
        </mxCell>
        <mxCell id="uvGimCY9zHbltvtBSdN4-111" value="&lt;span style=&quot;color: rgb(0, 0, 0); font-family: Helvetica; font-size: 12px; font-style: normal; font-variant-ligatures: normal; font-variant-caps: normal; font-weight: 400; letter-spacing: normal; orphans: 2; text-align: center; text-indent: 0px; text-transform: none; widows: 2; word-spacing: 0px; -webkit-text-stroke-width: 0px; white-space: normal; background-color: rgb(236, 236, 236); text-decoration-thickness: initial; text-decoration-style: initial; text-decoration-color: initial; float: none; display: inline !important;&quot;&gt;Статус заказа&lt;/span&gt;" style="text;strokeColor=none;fillColor=none;align=left;verticalAlign=middle;spacingLeft=4;spacingRight=4;overflow=hidden;points=[[0,0.5],[1,0.5]];portConstraint=eastwest;rotatable=0;whiteSpace=wrap;html=1;" parent="uvGimCY9zHbltvtBSdN4-85" vertex="1">
          <mxGeometry y="120" width="140" height="30" as="geometry" />
        </mxCell>
        <mxCell id="uvGimCY9zHbltvtBSdN4-97" value="&lt;code data-end=&quot;691&quot; data-start=&quot;683&quot;&gt;UserID&lt;/code&gt; (FK)" style="text;strokeColor=none;fillColor=none;align=left;verticalAlign=middle;spacingLeft=4;spacingRight=4;overflow=hidden;points=[[0,0.5],[1,0.5]];portConstraint=eastwest;rotatable=0;whiteSpace=wrap;html=1;" parent="uvGimCY9zHbltvtBSdN4-85" vertex="1">
          <mxGeometry y="150" width="140" height="30" as="geometry" />
        </mxCell>
        <mxCell id="uvGimCY9zHbltvtBSdN4-118" style="edgeStyle=orthogonalEdgeStyle;rounded=0;orthogonalLoop=1;jettySize=auto;html=1;entryX=0;entryY=0.5;entryDx=0;entryDy=0;endArrow=doubleBlock;endFill=1;startArrow=classic;startFill=1;" parent="1" source="uvGimCY9zHbltvtBSdN4-89" target="uvGimCY9zHbltvtBSdN4-83" edge="1">
          <mxGeometry relative="1" as="geometry" />
        </mxCell>
        <mxCell id="uvGimCY9zHbltvtBSdN4-89" value="Клиент" style="swimlane;fontStyle=0;childLayout=stackLayout;horizontal=1;startSize=30;horizontalStack=0;resizeParent=1;resizeParentMax=0;resizeLast=0;collapsible=1;marginBottom=0;whiteSpace=wrap;html=1;" parent="1" vertex="1">
          <mxGeometry x="450" y="1520" width="140" height="180" as="geometry" />
        </mxCell>
        <mxCell id="uvGimCY9zHbltvtBSdN4-90" value="&lt;span style=&quot;text-align: center;&quot;&gt;UserID&amp;nbsp;&lt;/span&gt;(PK)&amp;nbsp;" style="text;strokeColor=none;fillColor=none;align=left;verticalAlign=middle;spacingLeft=4;spacingRight=4;overflow=hidden;points=[[0,0.5],[1,0.5]];portConstraint=eastwest;rotatable=0;whiteSpace=wrap;html=1;" parent="uvGimCY9zHbltvtBSdN4-89" vertex="1">
          <mxGeometry y="30" width="140" height="30" as="geometry" />
        </mxCell>
        <mxCell id="uvGimCY9zHbltvtBSdN4-91" value="Пароль" style="text;strokeColor=none;fillColor=none;align=left;verticalAlign=middle;spacingLeft=4;spacingRight=4;overflow=hidden;points=[[0,0.5],[1,0.5]];portConstraint=eastwest;rotatable=0;whiteSpace=wrap;html=1;" parent="uvGimCY9zHbltvtBSdN4-89" vertex="1">
          <mxGeometry y="60" width="140" height="30" as="geometry" />
        </mxCell>
        <mxCell id="uvGimCY9zHbltvtBSdN4-92" value="E-mail" style="text;strokeColor=none;fillColor=none;align=left;verticalAlign=middle;spacingLeft=4;spacingRight=4;overflow=hidden;points=[[0,0.5],[1,0.5]];portConstraint=eastwest;rotatable=0;whiteSpace=wrap;html=1;" parent="uvGimCY9zHbltvtBSdN4-89" vertex="1">
          <mxGeometry y="90" width="140" height="30" as="geometry" />
        </mxCell>
        <mxCell id="uvGimCY9zHbltvtBSdN4-93" value="ФИО" style="text;strokeColor=none;fillColor=none;align=left;verticalAlign=middle;spacingLeft=4;spacingRight=4;overflow=hidden;points=[[0,0.5],[1,0.5]];portConstraint=eastwest;rotatable=0;whiteSpace=wrap;html=1;" parent="uvGimCY9zHbltvtBSdN4-89" vertex="1">
          <mxGeometry y="120" width="140" height="30" as="geometry" />
        </mxCell>
        <mxCell id="uvGimCY9zHbltvtBSdN4-94" value="Логин" style="text;strokeColor=none;fillColor=none;align=left;verticalAlign=middle;spacingLeft=4;spacingRight=4;overflow=hidden;points=[[0,0.5],[1,0.5]];portConstraint=eastwest;rotatable=0;whiteSpace=wrap;html=1;" parent="uvGimCY9zHbltvtBSdN4-89" vertex="1">
          <mxGeometry y="150" width="140" height="30" as="geometry" />
        </mxCell>
        <mxCell id="uvGimCY9zHbltvtBSdN4-98" value="Категория" style="swimlane;fontStyle=0;childLayout=stackLayout;horizontal=1;startSize=30;horizontalStack=0;resizeParent=1;resizeParentMax=0;resizeLast=0;collapsible=1;marginBottom=0;whiteSpace=wrap;html=1;" parent="1" vertex="1">
          <mxGeometry x="1075.72" y="1520" width="140" height="90" as="geometry" />
        </mxCell>
        <mxCell id="uvGimCY9zHbltvtBSdN4-99" value="&lt;code data-end=&quot;535&quot; data-start=&quot;523&quot;&gt;CategoryID&lt;/code&gt; (PK)" style="text;strokeColor=none;fillColor=none;align=left;verticalAlign=middle;spacingLeft=4;spacingRight=4;overflow=hidden;points=[[0,0.5],[1,0.5]];portConstraint=eastwest;rotatable=0;whiteSpace=wrap;html=1;" parent="uvGimCY9zHbltvtBSdN4-98" vertex="1">
          <mxGeometry y="30" width="140" height="30" as="geometry" />
        </mxCell>
        <mxCell id="uvGimCY9zHbltvtBSdN4-101" value="Название" style="text;strokeColor=none;fillColor=none;align=left;verticalAlign=middle;spacingLeft=4;spacingRight=4;overflow=hidden;points=[[0,0.5],[1,0.5]];portConstraint=eastwest;rotatable=0;whiteSpace=wrap;html=1;" parent="uvGimCY9zHbltvtBSdN4-98" vertex="1">
          <mxGeometry y="60" width="140" height="30" as="geometry" />
        </mxCell>
        <mxCell id="uvGimCY9zHbltvtBSdN4-104" value="Детали заказа" style="swimlane;fontStyle=0;childLayout=stackLayout;horizontal=1;startSize=30;horizontalStack=0;resizeParent=1;resizeParentMax=0;resizeLast=0;collapsible=1;marginBottom=0;whiteSpace=wrap;html=1;" parent="1" vertex="1">
          <mxGeometry x="758.3300000000002" y="1820" width="140" height="180" as="geometry" />
        </mxCell>
        <mxCell id="uvGimCY9zHbltvtBSdN4-106" value="&lt;code data-end=&quot;850&quot; data-start=&quot;835&quot;&gt;OrderDetailID&lt;/code&gt; (PK)&amp;nbsp;" style="text;strokeColor=none;fillColor=none;align=left;verticalAlign=middle;spacingLeft=4;spacingRight=4;overflow=hidden;points=[[0,0.5],[1,0.5]];portConstraint=eastwest;rotatable=0;whiteSpace=wrap;html=1;" parent="uvGimCY9zHbltvtBSdN4-104" vertex="1">
          <mxGeometry y="30" width="140" height="30" as="geometry" />
        </mxCell>
        <mxCell id="pVDXWpWLJMNRWE-AtLAr-95" value="&lt;span style=&quot;text-align: center;&quot;&gt;Итоговая сумма&lt;/span&gt;" style="text;strokeColor=none;fillColor=none;align=left;verticalAlign=middle;spacingLeft=4;spacingRight=4;overflow=hidden;points=[[0,0.5],[1,0.5]];portConstraint=eastwest;rotatable=0;whiteSpace=wrap;html=1;" vertex="1" parent="uvGimCY9zHbltvtBSdN4-104">
          <mxGeometry y="60" width="140" height="30" as="geometry" />
        </mxCell>
        <mxCell id="uvGimCY9zHbltvtBSdN4-107" value="&lt;span style=&quot;text-align: center;&quot;&gt;Количество&lt;/span&gt;" style="text;strokeColor=none;fillColor=none;align=left;verticalAlign=middle;spacingLeft=4;spacingRight=4;overflow=hidden;points=[[0,0.5],[1,0.5]];portConstraint=eastwest;rotatable=0;whiteSpace=wrap;html=1;" parent="uvGimCY9zHbltvtBSdN4-104" vertex="1">
          <mxGeometry y="90" width="140" height="30" as="geometry" />
        </mxCell>
        <mxCell id="pVDXWpWLJMNRWE-AtLAr-97" value="&lt;code data-end=&quot;899&quot; data-start=&quot;890&quot;&gt;OrderID&lt;/code&gt; (FK)" style="text;strokeColor=none;fillColor=none;align=left;verticalAlign=middle;spacingLeft=4;spacingRight=4;overflow=hidden;points=[[0,0.5],[1,0.5]];portConstraint=eastwest;rotatable=0;whiteSpace=wrap;html=1;" vertex="1" parent="uvGimCY9zHbltvtBSdN4-104">
          <mxGeometry y="120" width="140" height="30" as="geometry" />
        </mxCell>
        <mxCell id="pVDXWpWLJMNRWE-AtLAr-96" value="&lt;code data-end=&quot;941&quot; data-start=&quot;930&quot;&gt;ProductID&lt;/code&gt; (FK)&amp;nbsp;" style="text;strokeColor=none;fillColor=none;align=left;verticalAlign=middle;spacingLeft=4;spacingRight=4;overflow=hidden;points=[[0,0.5],[1,0.5]];portConstraint=eastwest;rotatable=0;whiteSpace=wrap;html=1;" vertex="1" parent="uvGimCY9zHbltvtBSdN4-104">
          <mxGeometry y="150" width="140" height="30" as="geometry" />
        </mxCell>
        <mxCell id="uvGimCY9zHbltvtBSdN4-120" style="edgeStyle=orthogonalEdgeStyle;rounded=0;orthogonalLoop=1;jettySize=auto;html=1;entryX=0;entryY=0.5;entryDx=0;entryDy=0;startArrow=doubleBlock;startFill=1;endArrow=classic;endFill=1;" parent="1" source="uvGimCY9zHbltvtBSdN4-83" target="uvGimCY9zHbltvtBSdN4-87" edge="1">
          <mxGeometry relative="1" as="geometry" />
        </mxCell>
        <mxCell id="uvGimCY9zHbltvtBSdN4-121" style="edgeStyle=orthogonalEdgeStyle;rounded=0;orthogonalLoop=1;jettySize=auto;html=1;entryX=0.793;entryY=0.004;entryDx=0;entryDy=0;endArrow=doubleBlock;endFill=1;startArrow=classic;startFill=1;exitX=0.299;exitY=0;exitDx=0;exitDy=0;exitPerimeter=0;entryPerimeter=0;" parent="1" source="uvGimCY9zHbltvtBSdN4-98" target="uvGimCY9zHbltvtBSdN4-81" edge="1">
          <mxGeometry relative="1" as="geometry" />
        </mxCell>
        <mxCell id="pVDXWpWLJMNRWE-AtLAr-1" value="Категория" style="ellipse;whiteSpace=wrap;html=1;" vertex="1" parent="1">
          <mxGeometry x="1060" y="-80" width="120" height="70" as="geometry" />
        </mxCell>
        <mxCell id="pVDXWpWLJMNRWE-AtLAr-4" style="edgeStyle=orthogonalEdgeStyle;rounded=0;orthogonalLoop=1;jettySize=auto;html=1;exitX=0.786;exitY=0;exitDx=0;exitDy=0;entryX=0.488;entryY=1.012;entryDx=0;entryDy=0;endArrow=none;endFill=0;entryPerimeter=0;exitPerimeter=0;" edge="1" parent="1" source="GMpPNXfCE2aBIk65RLhV-10" target="pVDXWpWLJMNRWE-AtLAr-1">
          <mxGeometry relative="1" as="geometry">
            <mxPoint x="1005.72" y="30" as="sourcePoint" />
            <mxPoint x="1115.72" y="10" as="targetPoint" />
          </mxGeometry>
        </mxCell>
        <mxCell id="pVDXWpWLJMNRWE-AtLAr-6" value="Детали заказа " style="ellipse;whiteSpace=wrap;html=1;" vertex="1" parent="1">
          <mxGeometry x="995.72" y="350" width="120" height="70" as="geometry" />
        </mxCell>
        <mxCell id="pVDXWpWLJMNRWE-AtLAr-7" style="edgeStyle=orthogonalEdgeStyle;rounded=0;orthogonalLoop=1;jettySize=auto;html=1;endArrow=none;endFill=0;entryX=1;entryY=0.5;entryDx=0;entryDy=0;exitX=0;exitY=0.5;exitDx=0;exitDy=0;" edge="1" parent="1" source="pVDXWpWLJMNRWE-AtLAr-6" target="GMpPNXfCE2aBIk65RLhV-26">
          <mxGeometry relative="1" as="geometry">
            <mxPoint x="990" y="380" as="sourcePoint" />
            <mxPoint x="960" y="330" as="targetPoint" />
          </mxGeometry>
        </mxCell>
        <mxCell id="pVDXWpWLJMNRWE-AtLAr-11" value="S" style="text;html=1;align=center;verticalAlign=middle;whiteSpace=wrap;rounded=0;" vertex="1" parent="1">
          <mxGeometry x="1105.72" y="-110" width="30" height="30" as="geometry" />
        </mxCell>
        <mxCell id="pVDXWpWLJMNRWE-AtLAr-13" style="edgeStyle=orthogonalEdgeStyle;rounded=0;orthogonalLoop=1;jettySize=auto;html=1;entryX=0.25;entryY=0;entryDx=0;entryDy=0;startArrow=classic;startFill=1;endArrow=doubleBlock;endFill=1;" edge="1" parent="1" source="pVDXWpWLJMNRWE-AtLAr-14" target="pVDXWpWLJMNRWE-AtLAr-29">
          <mxGeometry relative="1" as="geometry">
            <Array as="points">
              <mxPoint x="425.72" y="1020" />
              <mxPoint x="875.72" y="1020" />
            </Array>
          </mxGeometry>
        </mxCell>
        <mxCell id="pVDXWpWLJMNRWE-AtLAr-14" value="Клиент" style="rounded=0;whiteSpace=wrap;html=1;" vertex="1" parent="1">
          <mxGeometry x="365.72" y="860" width="120" height="60" as="geometry" />
        </mxCell>
        <mxCell id="pVDXWpWLJMNRWE-AtLAr-15" style="edgeStyle=orthogonalEdgeStyle;rounded=0;orthogonalLoop=1;jettySize=auto;html=1;exitX=1;exitY=1;exitDx=0;exitDy=0;endArrow=none;endFill=0;" edge="1" parent="1" source="pVDXWpWLJMNRWE-AtLAr-16" target="pVDXWpWLJMNRWE-AtLAr-14">
          <mxGeometry relative="1" as="geometry" />
        </mxCell>
        <mxCell id="pVDXWpWLJMNRWE-AtLAr-16" value="Логин" style="ellipse;whiteSpace=wrap;html=1;" vertex="1" parent="1">
          <mxGeometry x="235.72" y="710" width="120" height="70" as="geometry" />
        </mxCell>
        <mxCell id="pVDXWpWLJMNRWE-AtLAr-17" style="edgeStyle=orthogonalEdgeStyle;rounded=0;orthogonalLoop=1;jettySize=auto;html=1;entryX=0;entryY=0.5;entryDx=0;entryDy=0;endArrow=none;endFill=0;" edge="1" parent="1" source="pVDXWpWLJMNRWE-AtLAr-18" target="pVDXWpWLJMNRWE-AtLAr-14">
          <mxGeometry relative="1" as="geometry" />
        </mxCell>
        <mxCell id="pVDXWpWLJMNRWE-AtLAr-18" value="Пароль" style="ellipse;whiteSpace=wrap;html=1;" vertex="1" parent="1">
          <mxGeometry x="105.72" y="830" width="120" height="70" as="geometry" />
        </mxCell>
        <mxCell id="pVDXWpWLJMNRWE-AtLAr-19" style="edgeStyle=orthogonalEdgeStyle;rounded=0;orthogonalLoop=1;jettySize=auto;html=1;entryX=0.75;entryY=0;entryDx=0;entryDy=0;endArrow=none;endFill=0;" edge="1" parent="1" source="pVDXWpWLJMNRWE-AtLAr-20" target="pVDXWpWLJMNRWE-AtLAr-14">
          <mxGeometry relative="1" as="geometry" />
        </mxCell>
        <mxCell id="pVDXWpWLJMNRWE-AtLAr-20" value="E-mail" style="ellipse;whiteSpace=wrap;html=1;" vertex="1" parent="1">
          <mxGeometry x="465.72" y="690" width="120" height="70" as="geometry" />
        </mxCell>
        <mxCell id="pVDXWpWLJMNRWE-AtLAr-21" style="edgeStyle=orthogonalEdgeStyle;rounded=0;orthogonalLoop=1;jettySize=auto;html=1;entryX=1;entryY=0.5;entryDx=0;entryDy=0;exitX=0;exitY=1;exitDx=0;exitDy=0;endArrow=none;endFill=0;" edge="1" parent="1" source="pVDXWpWLJMNRWE-AtLAr-22" target="pVDXWpWLJMNRWE-AtLAr-14">
          <mxGeometry relative="1" as="geometry">
            <Array as="points">
              <mxPoint x="643.72" y="860" />
              <mxPoint x="555.72" y="860" />
              <mxPoint x="555.72" y="870" />
              <mxPoint x="515.72" y="870" />
              <mxPoint x="515.72" y="890" />
            </Array>
          </mxGeometry>
        </mxCell>
        <mxCell id="pVDXWpWLJMNRWE-AtLAr-22" value="ФИО" style="ellipse;whiteSpace=wrap;html=1;" vertex="1" parent="1">
          <mxGeometry x="625.72" y="770" width="120" height="70" as="geometry" />
        </mxCell>
        <mxCell id="pVDXWpWLJMNRWE-AtLAr-24" style="edgeStyle=orthogonalEdgeStyle;rounded=0;orthogonalLoop=1;jettySize=auto;html=1;exitX=1;exitY=0.75;exitDx=0;exitDy=0;endArrow=none;endFill=0;" edge="1" parent="1" source="pVDXWpWLJMNRWE-AtLAr-25" target="pVDXWpWLJMNRWE-AtLAr-27">
          <mxGeometry relative="1" as="geometry" />
        </mxCell>
        <mxCell id="pVDXWpWLJMNRWE-AtLAr-25" value="Товар" style="rounded=0;whiteSpace=wrap;html=1;" vertex="1" parent="1">
          <mxGeometry x="925.72" y="810" width="120" height="60" as="geometry" />
        </mxCell>
        <mxCell id="pVDXWpWLJMNRWE-AtLAr-26" value="Название" style="ellipse;whiteSpace=wrap;html=1;" vertex="1" parent="1">
          <mxGeometry x="915.72" y="690" width="120" height="70" as="geometry" />
        </mxCell>
        <mxCell id="pVDXWpWLJMNRWE-AtLAr-27" value="Цена" style="ellipse;whiteSpace=wrap;html=1;" vertex="1" parent="1">
          <mxGeometry x="1075.72" y="900" width="120" height="70" as="geometry" />
        </mxCell>
        <mxCell id="pVDXWpWLJMNRWE-AtLAr-28" style="edgeStyle=orthogonalEdgeStyle;rounded=0;orthogonalLoop=1;jettySize=auto;html=1;exitX=0.25;exitY=0;exitDx=0;exitDy=0;entryX=0.409;entryY=1.022;entryDx=0;entryDy=0;entryPerimeter=0;endArrow=none;endFill=0;" edge="1" parent="1" source="pVDXWpWLJMNRWE-AtLAr-25" target="pVDXWpWLJMNRWE-AtLAr-26">
          <mxGeometry relative="1" as="geometry" />
        </mxCell>
        <mxCell id="pVDXWpWLJMNRWE-AtLAr-29" value="Заказ" style="rounded=0;whiteSpace=wrap;html=1;" vertex="1" parent="1">
          <mxGeometry x="845.72" y="1090" width="120" height="60" as="geometry" />
        </mxCell>
        <mxCell id="pVDXWpWLJMNRWE-AtLAr-30" style="edgeStyle=orthogonalEdgeStyle;rounded=0;orthogonalLoop=1;jettySize=auto;html=1;exitX=0.5;exitY=0;exitDx=0;exitDy=0;endArrow=none;endFill=0;" edge="1" parent="1" source="pVDXWpWLJMNRWE-AtLAr-31" target="pVDXWpWLJMNRWE-AtLAr-29">
          <mxGeometry relative="1" as="geometry" />
        </mxCell>
        <mxCell id="pVDXWpWLJMNRWE-AtLAr-31" value="Статус заказа" style="ellipse;whiteSpace=wrap;html=1;" vertex="1" parent="1">
          <mxGeometry x="910" y="1205" width="120" height="70" as="geometry" />
        </mxCell>
        <mxCell id="pVDXWpWLJMNRWE-AtLAr-32" value="Дата заказа" style="ellipse;whiteSpace=wrap;html=1;" vertex="1" parent="1">
          <mxGeometry x="775.72" y="1205" width="120" height="70" as="geometry" />
        </mxCell>
        <mxCell id="pVDXWpWLJMNRWE-AtLAr-33" style="edgeStyle=orthogonalEdgeStyle;rounded=0;orthogonalLoop=1;jettySize=auto;html=1;exitX=1;exitY=0.5;exitDx=0;exitDy=0;entryX=0;entryY=0.5;entryDx=0;entryDy=0;endArrow=none;endFill=0;" edge="1" parent="1" source="pVDXWpWLJMNRWE-AtLAr-34" target="pVDXWpWLJMNRWE-AtLAr-29">
          <mxGeometry relative="1" as="geometry" />
        </mxCell>
        <mxCell id="pVDXWpWLJMNRWE-AtLAr-34" value="Номер Заказа" style="ellipse;whiteSpace=wrap;html=1;" vertex="1" parent="1">
          <mxGeometry x="590.72" y="1180" width="120" height="70" as="geometry" />
        </mxCell>
        <mxCell id="pVDXWpWLJMNRWE-AtLAr-35" style="edgeStyle=orthogonalEdgeStyle;rounded=0;orthogonalLoop=1;jettySize=auto;html=1;exitX=0.5;exitY=0;exitDx=0;exitDy=0;entryX=0.185;entryY=0.971;entryDx=0;entryDy=0;entryPerimeter=0;endArrow=none;endFill=0;" edge="1" parent="1" source="pVDXWpWLJMNRWE-AtLAr-32" target="pVDXWpWLJMNRWE-AtLAr-29">
          <mxGeometry relative="1" as="geometry" />
        </mxCell>
        <mxCell id="pVDXWpWLJMNRWE-AtLAr-36" value="S" style="text;html=1;align=center;verticalAlign=middle;whiteSpace=wrap;rounded=0;" vertex="1" parent="1">
          <mxGeometry x="535.72" y="660" width="30" height="30" as="geometry" />
        </mxCell>
        <mxCell id="pVDXWpWLJMNRWE-AtLAr-37" value="S" style="text;html=1;align=center;verticalAlign=middle;whiteSpace=wrap;rounded=0;" vertex="1" parent="1">
          <mxGeometry x="670.72" y="730" width="30" height="30" as="geometry" />
        </mxCell>
        <mxCell id="pVDXWpWLJMNRWE-AtLAr-38" value="S" style="text;html=1;align=center;verticalAlign=middle;whiteSpace=wrap;rounded=0;" vertex="1" parent="1">
          <mxGeometry x="280.72" y="670" width="30" height="30" as="geometry" />
        </mxCell>
        <mxCell id="pVDXWpWLJMNRWE-AtLAr-39" value="D" style="text;html=1;align=center;verticalAlign=middle;whiteSpace=wrap;rounded=0;" vertex="1" parent="1">
          <mxGeometry x="105.72" y="800" width="30" height="30" as="geometry" />
        </mxCell>
        <mxCell id="pVDXWpWLJMNRWE-AtLAr-40" value="S" style="text;html=1;align=center;verticalAlign=middle;whiteSpace=wrap;rounded=0;" vertex="1" parent="1">
          <mxGeometry x="788.22" y="1275" width="30" height="30" as="geometry" />
        </mxCell>
        <mxCell id="pVDXWpWLJMNRWE-AtLAr-41" value="D" style="text;html=1;align=center;verticalAlign=middle;whiteSpace=wrap;rounded=0;" vertex="1" parent="1">
          <mxGeometry x="973.22" y="1275" width="30" height="30" as="geometry" />
        </mxCell>
        <mxCell id="pVDXWpWLJMNRWE-AtLAr-42" value="S" style="text;html=1;align=center;verticalAlign=middle;whiteSpace=wrap;rounded=0;" vertex="1" parent="1">
          <mxGeometry x="610.72" y="1250" width="30" height="30" as="geometry" />
        </mxCell>
        <mxCell id="pVDXWpWLJMNRWE-AtLAr-43" value="S" style="text;html=1;align=center;verticalAlign=middle;whiteSpace=wrap;rounded=0;" vertex="1" parent="1">
          <mxGeometry x="960.72" y="660" width="30" height="30" as="geometry" />
        </mxCell>
        <mxCell id="pVDXWpWLJMNRWE-AtLAr-44" value="S" style="text;html=1;align=center;verticalAlign=middle;whiteSpace=wrap;rounded=0;" vertex="1" parent="1">
          <mxGeometry x="1190" y="930" width="30" height="30" as="geometry" />
        </mxCell>
        <mxCell id="pVDXWpWLJMNRWE-AtLAr-46" style="edgeStyle=orthogonalEdgeStyle;rounded=0;orthogonalLoop=1;jettySize=auto;html=1;startArrow=doubleBlock;startFill=1;endArrow=classic;endFill=1;" edge="1" parent="1" target="pVDXWpWLJMNRWE-AtLAr-29">
          <mxGeometry relative="1" as="geometry">
            <Array as="points">
              <mxPoint x="926" y="870" />
              <mxPoint x="926" y="950" />
              <mxPoint x="896" y="950" />
              <mxPoint x="896" y="1010" />
              <mxPoint x="926" y="1010" />
            </Array>
            <mxPoint x="926" y="870" as="sourcePoint" />
          </mxGeometry>
        </mxCell>
        <mxCell id="pVDXWpWLJMNRWE-AtLAr-47" style="edgeStyle=orthogonalEdgeStyle;rounded=0;orthogonalLoop=1;jettySize=auto;html=1;entryX=0;entryY=0.5;entryDx=0;entryDy=0;endArrow=doubleBlock;endFill=1;startArrow=doubleBlock;startFill=1;" edge="1" parent="1" source="pVDXWpWLJMNRWE-AtLAr-14" target="pVDXWpWLJMNRWE-AtLAr-25">
          <mxGeometry relative="1" as="geometry">
            <Array as="points">
              <mxPoint x="865.72" y="900" />
              <mxPoint x="865.72" y="840" />
            </Array>
          </mxGeometry>
        </mxCell>
        <mxCell id="pVDXWpWLJMNRWE-AtLAr-48" value="" style="rhombus;whiteSpace=wrap;html=1;" vertex="1" parent="1">
          <mxGeometry x="694" y="880" width="40" height="40" as="geometry" />
        </mxCell>
        <mxCell id="pVDXWpWLJMNRWE-AtLAr-49" value="" style="rhombus;whiteSpace=wrap;html=1;" vertex="1" parent="1">
          <mxGeometry x="875.72" y="950" width="40" height="40" as="geometry" />
        </mxCell>
        <mxCell id="pVDXWpWLJMNRWE-AtLAr-50" value="" style="rhombus;whiteSpace=wrap;html=1;" vertex="1" parent="1">
          <mxGeometry x="625.72" y="995" width="50" height="50" as="geometry" />
        </mxCell>
        <mxCell id="pVDXWpWLJMNRWE-AtLAr-51" value="Категория" style="ellipse;whiteSpace=wrap;html=1;" vertex="1" parent="1">
          <mxGeometry x="1090" y="680" width="120" height="70" as="geometry" />
        </mxCell>
        <mxCell id="pVDXWpWLJMNRWE-AtLAr-52" style="edgeStyle=orthogonalEdgeStyle;rounded=0;orthogonalLoop=1;jettySize=auto;html=1;exitX=0.786;exitY=0;exitDx=0;exitDy=0;entryX=0.488;entryY=1.012;entryDx=0;entryDy=0;endArrow=none;endFill=0;entryPerimeter=0;exitPerimeter=0;" edge="1" parent="1" source="pVDXWpWLJMNRWE-AtLAr-25" target="pVDXWpWLJMNRWE-AtLAr-51">
          <mxGeometry relative="1" as="geometry">
            <mxPoint x="1035.72" y="790" as="sourcePoint" />
            <mxPoint x="1145.72" y="770" as="targetPoint" />
          </mxGeometry>
        </mxCell>
        <mxCell id="pVDXWpWLJMNRWE-AtLAr-55" value="S" style="text;html=1;align=center;verticalAlign=middle;whiteSpace=wrap;rounded=0;" vertex="1" parent="1">
          <mxGeometry x="1135.72" y="650" width="30" height="30" as="geometry" />
        </mxCell>
        <mxCell id="pVDXWpWLJMNRWE-AtLAr-56" value="Категория" style="rounded=0;whiteSpace=wrap;html=1;" vertex="1" parent="1">
          <mxGeometry x="1215" y="800" width="120" height="60" as="geometry" />
        </mxCell>
        <mxCell id="pVDXWpWLJMNRWE-AtLAr-57" value="Название" style="ellipse;whiteSpace=wrap;html=1;" vertex="1" parent="1">
          <mxGeometry x="1320" y="700" width="120" height="70" as="geometry" />
        </mxCell>
        <mxCell id="pVDXWpWLJMNRWE-AtLAr-58" value="CategoryID" style="ellipse;whiteSpace=wrap;html=1;" vertex="1" parent="1">
          <mxGeometry x="1370" y="870" width="120" height="70" as="geometry" />
        </mxCell>
        <mxCell id="pVDXWpWLJMNRWE-AtLAr-59" style="edgeStyle=orthogonalEdgeStyle;rounded=0;orthogonalLoop=1;jettySize=auto;html=1;exitX=0.75;exitY=1;exitDx=0;exitDy=0;endArrow=none;endFill=0;entryX=0;entryY=0.5;entryDx=0;entryDy=0;" edge="1" parent="1" source="pVDXWpWLJMNRWE-AtLAr-56" target="pVDXWpWLJMNRWE-AtLAr-58">
          <mxGeometry relative="1" as="geometry">
            <mxPoint x="1215" y="877.5" as="sourcePoint" />
            <mxPoint x="1305" y="922.5" as="targetPoint" />
          </mxGeometry>
        </mxCell>
        <mxCell id="pVDXWpWLJMNRWE-AtLAr-60" style="edgeStyle=orthogonalEdgeStyle;rounded=0;orthogonalLoop=1;jettySize=auto;html=1;exitX=0.608;exitY=-0.017;exitDx=0;exitDy=0;endArrow=none;endFill=0;entryX=0.5;entryY=1;entryDx=0;entryDy=0;exitPerimeter=0;" edge="1" parent="1" source="pVDXWpWLJMNRWE-AtLAr-56" target="pVDXWpWLJMNRWE-AtLAr-57">
          <mxGeometry relative="1" as="geometry">
            <mxPoint x="1320" y="780" as="sourcePoint" />
            <mxPoint x="1385" y="825" as="targetPoint" />
          </mxGeometry>
        </mxCell>
        <mxCell id="pVDXWpWLJMNRWE-AtLAr-61" value="S" style="text;html=1;align=center;verticalAlign=middle;whiteSpace=wrap;rounded=0;" vertex="1" parent="1">
          <mxGeometry x="1380" y="660" width="30" height="30" as="geometry" />
        </mxCell>
        <mxCell id="pVDXWpWLJMNRWE-AtLAr-62" value="S" style="text;html=1;align=center;verticalAlign=middle;whiteSpace=wrap;rounded=0;" vertex="1" parent="1">
          <mxGeometry x="1410" y="830" width="30" height="30" as="geometry" />
        </mxCell>
        <mxCell id="pVDXWpWLJMNRWE-AtLAr-64" style="edgeStyle=orthogonalEdgeStyle;rounded=0;orthogonalLoop=1;jettySize=auto;html=1;entryX=0;entryY=0.5;entryDx=0;entryDy=0;endArrow=classic;endFill=1;startArrow=doubleBlock;startFill=1;exitX=1;exitY=0.25;exitDx=0;exitDy=0;" edge="1" parent="1" source="pVDXWpWLJMNRWE-AtLAr-25" target="pVDXWpWLJMNRWE-AtLAr-56">
          <mxGeometry relative="1" as="geometry">
            <Array as="points">
              <mxPoint x="1060" y="825" />
              <mxPoint x="1060" y="826" />
              <mxPoint x="1186" y="826" />
              <mxPoint x="1186" y="830" />
            </Array>
            <mxPoint x="1010" y="825" as="sourcePoint" />
            <mxPoint x="1185.8400000000001" y="821.1799999999998" as="targetPoint" />
          </mxGeometry>
        </mxCell>
        <mxCell id="pVDXWpWLJMNRWE-AtLAr-65" value="" style="rhombus;whiteSpace=wrap;html=1;" vertex="1" parent="1">
          <mxGeometry x="1111" y="806" width="40" height="40" as="geometry" />
        </mxCell>
        <mxCell id="pVDXWpWLJMNRWE-AtLAr-67" value="ProductID" style="ellipse;whiteSpace=wrap;html=1;" vertex="1" parent="1">
          <mxGeometry x="1175.72" y="985" width="120" height="70" as="geometry" />
        </mxCell>
        <mxCell id="pVDXWpWLJMNRWE-AtLAr-68" style="edgeStyle=orthogonalEdgeStyle;rounded=0;orthogonalLoop=1;jettySize=auto;html=1;exitX=0.902;exitY=1.017;exitDx=0;exitDy=0;endArrow=none;endFill=0;exitPerimeter=0;entryX=0.5;entryY=0;entryDx=0;entryDy=0;" edge="1" parent="1" source="pVDXWpWLJMNRWE-AtLAr-25" target="pVDXWpWLJMNRWE-AtLAr-67">
          <mxGeometry relative="1" as="geometry">
            <mxPoint x="1056" y="865" as="sourcePoint" />
            <mxPoint x="1060" y="960" as="targetPoint" />
            <Array as="points">
              <mxPoint x="1034" y="985" />
            </Array>
          </mxGeometry>
        </mxCell>
        <mxCell id="pVDXWpWLJMNRWE-AtLAr-69" value="UserID" style="ellipse;whiteSpace=wrap;html=1;" vertex="1" parent="1">
          <mxGeometry x="190.72" y="970" width="120" height="70" as="geometry" />
        </mxCell>
        <mxCell id="pVDXWpWLJMNRWE-AtLAr-70" value="S" style="text;html=1;align=center;verticalAlign=middle;whiteSpace=wrap;rounded=0;" vertex="1" parent="1">
          <mxGeometry x="1305" y="1005" width="30" height="30" as="geometry" />
        </mxCell>
        <mxCell id="pVDXWpWLJMNRWE-AtLAr-71" value="S" style="text;html=1;align=center;verticalAlign=middle;whiteSpace=wrap;rounded=0;" vertex="1" parent="1">
          <mxGeometry x="205.72000000000003" y="940" width="30" height="30" as="geometry" />
        </mxCell>
        <mxCell id="pVDXWpWLJMNRWE-AtLAr-72" style="edgeStyle=orthogonalEdgeStyle;rounded=0;orthogonalLoop=1;jettySize=auto;html=1;entryX=0.25;entryY=1;entryDx=0;entryDy=0;endArrow=none;endFill=0;exitX=0.744;exitY=0.045;exitDx=0;exitDy=0;exitPerimeter=0;" edge="1" parent="1" source="pVDXWpWLJMNRWE-AtLAr-69" target="pVDXWpWLJMNRWE-AtLAr-14">
          <mxGeometry relative="1" as="geometry">
            <mxPoint x="236" y="875" as="sourcePoint" />
            <mxPoint x="376" y="900" as="targetPoint" />
          </mxGeometry>
        </mxCell>
        <mxCell id="pVDXWpWLJMNRWE-AtLAr-73" value="Детали заказа" style="rounded=0;whiteSpace=wrap;html=1;" vertex="1" parent="1">
          <mxGeometry x="1175.72" y="1135" width="120" height="60" as="geometry" />
        </mxCell>
        <mxCell id="pVDXWpWLJMNRWE-AtLAr-74" value="OrderID" style="ellipse;whiteSpace=wrap;html=1;" vertex="1" parent="1">
          <mxGeometry x="595.72" y="1070" width="120" height="70" as="geometry" />
        </mxCell>
        <mxCell id="pVDXWpWLJMNRWE-AtLAr-75" value="S" style="text;html=1;align=center;verticalAlign=middle;whiteSpace=wrap;rounded=0;" vertex="1" parent="1">
          <mxGeometry x="560.72" y="1090" width="30" height="30" as="geometry" />
        </mxCell>
        <mxCell id="pVDXWpWLJMNRWE-AtLAr-76" style="edgeStyle=orthogonalEdgeStyle;rounded=0;orthogonalLoop=1;jettySize=auto;html=1;exitX=1;exitY=0.5;exitDx=0;exitDy=0;entryX=0;entryY=0.25;entryDx=0;entryDy=0;endArrow=none;endFill=0;" edge="1" parent="1" source="pVDXWpWLJMNRWE-AtLAr-74" target="pVDXWpWLJMNRWE-AtLAr-29">
          <mxGeometry relative="1" as="geometry">
            <mxPoint x="721" y="1225" as="sourcePoint" />
            <mxPoint x="856" y="1130" as="targetPoint" />
          </mxGeometry>
        </mxCell>
        <mxCell id="pVDXWpWLJMNRWE-AtLAr-77" value="Итоговая сумма" style="ellipse;whiteSpace=wrap;html=1;" vertex="1" parent="1">
          <mxGeometry x="1165.72" y="1270" width="120" height="70" as="geometry" />
        </mxCell>
        <mxCell id="pVDXWpWLJMNRWE-AtLAr-78" value="Количество" style="ellipse;whiteSpace=wrap;html=1;" vertex="1" parent="1">
          <mxGeometry x="1310" y="1250" width="120" height="70" as="geometry" />
        </mxCell>
        <mxCell id="pVDXWpWLJMNRWE-AtLAr-79" value="OrderDetailID" style="ellipse;whiteSpace=wrap;html=1;" vertex="1" parent="1">
          <mxGeometry x="1340" y="1130" width="120" height="70" as="geometry" />
        </mxCell>
        <mxCell id="pVDXWpWLJMNRWE-AtLAr-80" style="edgeStyle=orthogonalEdgeStyle;rounded=0;orthogonalLoop=1;jettySize=auto;html=1;entryX=0;entryY=0.5;entryDx=0;entryDy=0;endArrow=doubleBlock;endFill=1;startArrow=doubleBlock;startFill=1;exitX=1;exitY=0.5;exitDx=0;exitDy=0;" edge="1" parent="1" source="pVDXWpWLJMNRWE-AtLAr-29" target="pVDXWpWLJMNRWE-AtLAr-73">
          <mxGeometry relative="1" as="geometry">
            <Array as="points">
              <mxPoint x="1017" y="1120" />
              <mxPoint x="1017" y="1136" />
              <mxPoint x="1143" y="1136" />
              <mxPoint x="1143" y="1165" />
            </Array>
            <mxPoint x="1003.22" y="1135" as="sourcePoint" />
            <mxPoint x="1172.22" y="1140" as="targetPoint" />
          </mxGeometry>
        </mxCell>
        <mxCell id="pVDXWpWLJMNRWE-AtLAr-81" value="" style="rhombus;whiteSpace=wrap;html=1;" vertex="1" parent="1">
          <mxGeometry x="1053" y="1117" width="40" height="40" as="geometry" />
        </mxCell>
        <mxCell id="pVDXWpWLJMNRWE-AtLAr-82" style="edgeStyle=orthogonalEdgeStyle;rounded=0;orthogonalLoop=1;jettySize=auto;html=1;exitX=0.5;exitY=0;exitDx=0;exitDy=0;endArrow=none;endFill=0;entryX=0.465;entryY=1.054;entryDx=0;entryDy=0;entryPerimeter=0;" edge="1" parent="1" source="pVDXWpWLJMNRWE-AtLAr-77" target="pVDXWpWLJMNRWE-AtLAr-73">
          <mxGeometry relative="1" as="geometry">
            <mxPoint x="1285.72" y="1255" as="sourcePoint" />
            <mxPoint x="1221.72" y="1200" as="targetPoint" />
          </mxGeometry>
        </mxCell>
        <mxCell id="pVDXWpWLJMNRWE-AtLAr-83" style="edgeStyle=orthogonalEdgeStyle;rounded=0;orthogonalLoop=1;jettySize=auto;html=1;exitX=0.013;exitY=0.315;exitDx=0;exitDy=0;endArrow=none;endFill=0;entryX=0.75;entryY=1;entryDx=0;entryDy=0;exitPerimeter=0;" edge="1" parent="1" source="pVDXWpWLJMNRWE-AtLAr-78" target="pVDXWpWLJMNRWE-AtLAr-73">
          <mxGeometry relative="1" as="geometry">
            <mxPoint x="1236" y="1280" as="sourcePoint" />
            <mxPoint x="1242" y="1208" as="targetPoint" />
          </mxGeometry>
        </mxCell>
        <mxCell id="pVDXWpWLJMNRWE-AtLAr-84" style="edgeStyle=orthogonalEdgeStyle;rounded=0;orthogonalLoop=1;jettySize=auto;html=1;exitX=0;exitY=0.5;exitDx=0;exitDy=0;endArrow=none;endFill=0;entryX=1;entryY=0.5;entryDx=0;entryDy=0;" edge="1" parent="1" source="pVDXWpWLJMNRWE-AtLAr-79" target="pVDXWpWLJMNRWE-AtLAr-73">
          <mxGeometry relative="1" as="geometry">
            <mxPoint x="1246" y="1290" as="sourcePoint" />
            <mxPoint x="1252" y="1218" as="targetPoint" />
          </mxGeometry>
        </mxCell>
        <mxCell id="pVDXWpWLJMNRWE-AtLAr-85" value="S" style="text;html=1;align=center;verticalAlign=middle;whiteSpace=wrap;rounded=0;" vertex="1" parent="1">
          <mxGeometry x="1470" y="1157" width="30" height="30" as="geometry" />
        </mxCell>
        <mxCell id="pVDXWpWLJMNRWE-AtLAr-86" value="D&lt;span style=&quot;color: rgba(0, 0, 0, 0); font-family: monospace; font-size: 0px; text-align: start; text-wrap-mode: nowrap;&quot;&gt;%3CmxGraphModel%3E%3Croot%3E%3CmxCell%20id%3D%220%22%2F%3E%3CmxCell%20id%3D%221%22%20parent%3D%220%22%2F%3E%3CmxCell%20id%3D%222%22%20value%3D%22S%22%20style%3D%22text%3Bhtml%3D1%3Balign%3Dcenter%3BverticalAlign%3Dmiddle%3BwhiteSpace%3Dwrap%3Brounded%3D0%3B%22%20vertex%3D%221%22%20parent%3D%221%22%3E%3CmxGeometry%20x%3D%22788.22%22%20y%3D%221275%22%20width%3D%2230%22%20height%3D%2230%22%20as%3D%22geometry%22%2F%3E%3C%2FmxCell%3E%3C%2Froot%3E%3C%2FmxGraphModel%3E&lt;/span&gt;" style="text;html=1;align=center;verticalAlign=middle;whiteSpace=wrap;rounded=0;" vertex="1" parent="1">
          <mxGeometry x="1430" y="1270" width="30" height="30" as="geometry" />
        </mxCell>
        <mxCell id="pVDXWpWLJMNRWE-AtLAr-87" value="D" style="text;html=1;align=center;verticalAlign=middle;whiteSpace=wrap;rounded=0;" vertex="1" parent="1">
          <mxGeometry x="1135.72" y="1290" width="30" height="30" as="geometry" />
        </mxCell>
        <mxCell id="pVDXWpWLJMNRWE-AtLAr-89" style="edgeStyle=orthogonalEdgeStyle;rounded=0;orthogonalLoop=1;jettySize=auto;html=1;entryX=0.5;entryY=0;entryDx=0;entryDy=0;endArrow=doubleBlock;endFill=1;startArrow=doubleBlock;startFill=1;" edge="1" parent="1" target="pVDXWpWLJMNRWE-AtLAr-73">
          <mxGeometry relative="1" as="geometry">
            <Array as="points">
              <mxPoint x="980" y="1075" />
              <mxPoint x="1021" y="1075" />
              <mxPoint x="1021" y="1091" />
              <mxPoint x="1147" y="1091" />
              <mxPoint x="1147" y="1120" />
              <mxPoint x="1236" y="1120" />
            </Array>
            <mxPoint x="980" y="870" as="sourcePoint" />
            <mxPoint x="1180" y="1120" as="targetPoint" />
          </mxGeometry>
        </mxCell>
        <mxCell id="pVDXWpWLJMNRWE-AtLAr-90" value="" style="rhombus;whiteSpace=wrap;html=1;" vertex="1" parent="1">
          <mxGeometry x="1050" y="1070" width="40" height="40" as="geometry" />
        </mxCell>
        <mxCell id="pVDXWpWLJMNRWE-AtLAr-98" style="edgeStyle=orthogonalEdgeStyle;rounded=0;orthogonalLoop=1;jettySize=auto;html=1;entryX=0.25;entryY=0;entryDx=0;entryDy=0;startArrow=doubleBlock;startFill=1;endArrow=doubleBlock;endFill=1;exitX=0.769;exitY=1;exitDx=0;exitDy=0;exitPerimeter=0;" edge="1" parent="1" source="pVDXWpWLJMNRWE-AtLAr-94" target="uvGimCY9zHbltvtBSdN4-104">
          <mxGeometry relative="1" as="geometry">
            <mxPoint x="767.61" y="1710" as="sourcePoint" />
            <mxPoint x="753.33" y="1760" as="targetPoint" />
          </mxGeometry>
        </mxCell>
        <mxCell id="pVDXWpWLJMNRWE-AtLAr-99" style="edgeStyle=orthogonalEdgeStyle;rounded=0;orthogonalLoop=1;jettySize=auto;html=1;entryX=0.75;entryY=0;entryDx=0;entryDy=0;startArrow=doubleBlock;startFill=1;endArrow=doubleBlock;endFill=1;exitX=0.304;exitY=1;exitDx=0;exitDy=0;exitPerimeter=0;" edge="1" parent="1" source="uvGimCY9zHbltvtBSdN4-97" target="uvGimCY9zHbltvtBSdN4-104">
          <mxGeometry relative="1" as="geometry">
            <mxPoint x="816.61" y="1760" as="sourcePoint" />
            <mxPoint x="881.61" y="1760" as="targetPoint" />
          </mxGeometry>
        </mxCell>
      </root>
    </mxGraphModel>
  </diagram>
</mxfile>
